# xmcd CD database file
#
# Track frame offsets:
#	150
#	13395
#	25713
#	37836
#	50481
#	64284
#	78906
#	92631
#	104434
#	118855
#	132134
#	148073
#	160705
#	170973
#	187175
#	201988
#	212107
#	225821
#	241672
#	254960
#
# Disc length: 3616 seconds
#
# Revision: 0
# Processed by: cddbd v1.5.1PL2 Copyright (c) Steve Scherf et al.
# Submitted via: CDex 1.50beta9
#
DISCID=1f0e1e14
DTITLE=Various Artist - Fabulous Thirties Collection
DYEAR=1900
DGENRE=Jazz
TTITLE0=Eddie Condon-Ballin' The Jack
TTITLE1=Dick Powell-Love Is In The Air Tonight
TTITLE2=Teddy Wilson-Coquette
TTITLE3=Ethel Merman-It's DeLovely
TTITLE4=Xavier Cugat-Isle Of Capri
TTITLE5=Benny Goodman-The Yam
TTITLE6=Jessie Matthews-Dancing On The Ceiling
TTITLE7=Artie Shaw and His Orch-Whistle While You Work
TTITLE8=Hoagy Carmichael-Two Sleepy People
TTITLE9=King Oliver-I Must Have It
TTITLE10=Paul Robeson-Don't You Cry My Honey
TTITLE11=Louis Prima-Sweet Sue
TTITLE12=Ethel Merman-Shake Well Before Using
TTITLE13=Roy Fox (voc Nat Gonella)-Oh Monah
TTITLE14=Gracie Fields-I Took My Harp To A Party
TTITLE15=Glenn Miller and His Orch-Danny Boy
TTITLE16=Hoagy Carmichael-Lazy Bones
TTITLE17=Fats Waller-I'm Gonna Sit Right Down And Write Myself A Letter
TTITLE18=Jack Teagarden and His Orch-Stars Fell On Alabama
TTITLE19=Henry Hall and His BBC Dance Orch-It's Time To Say Goodnight - Here's To The Next Time
EXTD=
EXTT0=
EXTT1=
EXTT2=
EXTT3=
EXTT4=
EXTT5=
EXTT6=
EXTT7=
EXTT8=
EXTT9=
EXTT10=
EXTT11=
EXTT12=
EXTT13=
EXTT14=
EXTT15=
EXTT16=
EXTT17=
EXTT18=
EXTT19=
PLAYORDER=
